solid 
 facet normal -1.000000e+00 -2.234854e-31 -1.110223e-16
   outer loop
     vertex -2.666584e-18  4.745419e-01  5.240185e-01
     vertex -3.751812e-18  4.582020e-01  5.337933e-01
     vertex -4.169871e-18  4.615501e-01  5.375589e-01
   endloop
 endfacet
 facet normal -1.000000e+00  1.039221e-30 -1.110223e-16
   outer loop
     vertex -2.976681e-18  4.775024e-01  5.268116e-01
     vertex -2.666584e-18  4.745419e-01  5.240185e-01
     vertex -4.169871e-18  4.615501e-01  5.375589e-01
   endloop
 endfacet
 facet normal -1.000000e+00 -6.380132e-31 -1.110223e-16
   outer loop
     vertex -2.976681e-18  4.775024e-01  5.268116e-01
     vertex -4.551285e-18  4.652361e-01  5.409943e-01
     vertex -4.892702e-18  4.692276e-01  5.440695e-01
   endloop
 endfacet
 facet normal -1.000000e+00  6.374312e-31 -1.110223e-16
   outer loop
     vertex -2.976681e-18  4.775024e-01  5.268116e-01
     vertex -4.169871e-18  4.615501e-01  5.375589e-01
     vertex -4.551285e-18  4.652361e-01  5.409943e-01
   endloop
 endfacet
 facet normal -1.000000e+00 -2.556088e-31 -1.110223e-16
   outer loop
     vertex -2.320427e-18  4.719257e-01  5.209006e-01
     vertex -3.300782e-18  4.552212e-01  5.297308e-01
     vertex -3.751812e-18  4.582020e-01  5.337933e-01
   endloop
 endfacet
 facet normal -1.000000e+00 -6.193949e-31 -1.110223e-16
   outer loop
     vertex -2.320427e-18  4.719257e-01  5.209006e-01
     vertex -3.751812e-18  4.582020e-01  5.337933e-01
     vertex -2.666584e-18  4.745419e-01  5.240185e-01
   endloop
 endfacet
 facet normal -1.000000e+00 -1.149899e-30 -1.110223e-16
   outer loop
     vertex -3.246522e-18  4.807672e-01  5.292421e-01
     vertex -4.892702e-18  4.692276e-01  5.440695e-01
     vertex -5.191122e-18  4.734896e-01  5.467575e-01
   endloop
 endfacet
 facet normal -1.000000e+00 -1.859756e-30 -1.110223e-16
   outer loop
     vertex -3.246522e-18  4.807672e-01  5.292421e-01
     vertex -2.976681e-18  4.775024e-01  5.268116e-01
     vertex -4.892702e-18  4.692276e-01  5.440695e-01
   endloop
 endfacet
 facet normal -1.000000e+00  0.000000e+00 -1.110223e-16
   outer loop
     vertex -1.942890e-18  4.696891e-01  5.175000e-01
     vertex -2.820744e-18  4.526339e-01  5.254070e-01
     vertex -3.300782e-18  4.552212e-01  5.297308e-01
   endloop
 endfacet
 facet normal -1.000000e+00 -9.335896e-31 -1.110223e-16
   outer loop
     vertex -1.942890e-18  4.696891e-01  5.175000e-01
     vertex -3.300782e-18  4.552212e-01  5.297308e-01
     vertex -2.320427e-18  4.719257e-01  5.209006e-01
   endloop
 endfacet
 facet normal -1.000000e+00  1.789322e-30 -1.110223e-16
   outer loop
     vertex -3.472460e-18  4.842920e-01  5.312771e-01
     vertex -5.191122e-18  4.734896e-01  5.467575e-01
     vertex -5.443922e-18  4.779845e-01  5.490345e-01
   endloop
 endfacet
 facet normal -1.000000e+00  6.977775e-31 -1.110223e-16
   outer loop
     vertex -3.472460e-18  4.842920e-01  5.312771e-01
     vertex -3.246522e-18  4.807672e-01  5.292421e-01
     vertex -5.191122e-18  4.734896e-01  5.467575e-01
   endloop
 endfacet
 facet normal -1.000000e+00  4.786340e-31 -1.110223e-16
   outer loop
     vertex -1.539079e-18  4.678624e-01  5.138628e-01
     vertex -2.315918e-18  4.504629e-01  5.208599e-01
     vertex -2.820744e-18  4.526339e-01  5.254070e-01
   endloop
 endfacet
 facet normal -1.000000e+00  2.110754e-31 -1.110223e-16
   outer loop
     vertex -1.539079e-18  4.678624e-01  5.138628e-01
     vertex -1.790740e-18  4.487272e-01  5.161295e-01
     vertex -2.315918e-18  4.504629e-01  5.208599e-01
   endloop
 endfacet
 facet normal -1.000000e+00  8.361602e-31 -1.110223e-16
   outer loop
     vertex -1.539079e-18  4.678624e-01  5.138628e-01
     vertex -2.820744e-18  4.526339e-01  5.254070e-01
     vertex -1.942890e-18  4.696891e-01  5.175000e-01
   endloop
 endfacet
 facet normal -1.000000e+00 -1.915935e-30 -1.110223e-16
   outer loop
     vertex -3.651439e-18  4.880293e-01  5.328892e-01
     vertex -5.443922e-18  4.779845e-01  5.490345e-01
     vertex -5.648881e-18  4.826729e-01  5.508806e-01
   endloop
 endfacet
 facet normal -1.000000e+00  1.651449e-30 -1.110223e-16
   outer loop
     vertex -3.651439e-18  4.880293e-01  5.328892e-01
     vertex -3.472460e-18  4.842920e-01  5.312771e-01
     vertex -5.443922e-18  4.779845e-01  5.490345e-01
   endloop
 endfacet
 facet normal -1.000000e+00 -1.955100e-31 -1.110223e-16
   outer loop
     vertex -1.114454e-18  4.664704e-01  5.100381e-01
     vertex -1.249824e-18  4.474421e-01  5.112574e-01
     vertex -1.790740e-18  4.487272e-01  5.161295e-01
   endloop
 endfacet
 facet normal -1.000000e+00  6.898223e-32 -1.110223e-16
   outer loop
     vertex -1.114454e-18  4.664704e-01  5.100381e-01
     vertex -1.790740e-18  4.487272e-01  5.161295e-01
     vertex -1.539079e-18  4.678624e-01  5.138628e-01
   endloop
 endfacet
 facet normal -1.000000e+00  6.378335e-31 -1.110223e-16
   outer loop
     vertex -3.781039e-18  4.919284e-01  5.340566e-01
     vertex -5.804197e-18  4.875136e-01  5.522796e-01
     vertex -5.908505e-18  4.924640e-01  5.532191e-01
   endloop
 endfacet
 facet normal -1.000000e+00  7.651673e-31 -1.110223e-16
   outer loop
     vertex -3.781039e-18  4.919284e-01  5.340566e-01
     vertex -5.648881e-18  4.826729e-01  5.508806e-01
     vertex -5.804197e-18  4.875136e-01  5.522796e-01
   endloop
 endfacet
 facet normal -1.000000e+00 -3.347846e-31 -1.110223e-16
   outer loop
     vertex -3.781039e-18  4.919284e-01  5.340566e-01
     vertex -3.651439e-18  4.880293e-01  5.328892e-01
     vertex -5.648881e-18  4.826729e-01  5.508806e-01
   endloop
 endfacet
 facet normal -1.000000e+00  4.916808e-33 -1.110223e-16
   outer loop
     vertex -6.747587e-19  4.655317e-01  5.060777e-01
     vertex -1.249824e-18  4.474421e-01  5.112574e-01
     vertex -1.114454e-18  4.664704e-01  5.100381e-01
   endloop
 endfacet
 facet normal -1.000000e+00 -4.717513e-32 -1.110223e-16
   outer loop
     vertex -6.747587e-19  4.655317e-01  5.060777e-01
     vertex -6.979249e-19  4.466189e-01  5.062863e-01
     vertex -1.249824e-18  4.474421e-01  5.112574e-01
   endloop
 endfacet
 facet normal -1.000000e+00 -1.277492e-31 -1.110223e-16
   outer loop
     vertex -3.859506e-18  4.959367e-01  5.347633e-01
     vertex -5.908505e-18  4.924640e-01  5.532191e-01
     vertex -5.960890e-18  4.974806e-01  5.536909e-01
   endloop
 endfacet
 facet normal -1.000000e+00 -4.404797e-31 -1.110223e-16
   outer loop
     vertex -3.859506e-18  4.959367e-01  5.347633e-01
     vertex -3.781039e-18  4.919284e-01  5.340566e-01
     vertex -5.908505e-18  4.924640e-01  5.532191e-01
   endloop
 endfacet
 facet normal -1.000000e+00  1.552479e-31 -1.110223e-16
   outer loop
     vertex -2.259380e-19  4.650592e-01  5.020351e-01
     vertex -1.398924e-19  4.462648e-01  5.012600e-01
     vertex -6.979249e-19  4.466189e-01  5.062863e-01
   endloop
 endfacet
 facet normal -1.000000e+00 -8.844305e-32 -1.110223e-16
   outer loop
     vertex -2.259380e-19  4.650592e-01  5.020351e-01
     vertex -6.979249e-19  4.466189e-01  5.062863e-01
     vertex -6.747587e-19  4.655317e-01  5.060777e-01
   endloop
 endfacet
 facet normal -1.000000e+00  1.278102e-31 -1.110223e-16
   outer loop
     vertex -3.885781e-18  5.000000e-01  5.350000e-01
     vertex -5.960890e-18  4.974806e-01  5.536909e-01
     vertex -5.960890e-18  5.025194e-01  5.536909e-01
   endloop
 endfacet
 facet normal -1.000000e+00  4.189519e-31 -1.110223e-16
   outer loop
     vertex -3.885781e-18  5.000000e-01  5.350000e-01
     vertex -3.859506e-18  4.959367e-01  5.347633e-01
     vertex -5.960890e-18  4.974806e-01  5.536909e-01
   endloop
 endfacet
 facet normal -1.000000e+00 -1.067208e-31 -1.110223e-16
   outer loop
     vertex  2.259380e-19  4.650592e-01  4.979649e-01
     vertex  4.193696e-19  4.463829e-01  4.962227e-01
     vertex -1.398924e-19  4.462648e-01  5.012600e-01
   endloop
 endfacet
 facet normal -1.000000e+00  3.933887e-32 -1.110223e-16
   outer loop
     vertex  2.259380e-19  4.650592e-01  4.979649e-01
     vertex -1.398924e-19  4.462648e-01  5.012600e-01
     vertex -2.259380e-19  4.650592e-01  5.020351e-01
   endloop
 endfacet
 facet normal -1.000000e+00  7.026206e-31 -1.110223e-16
   outer loop
     vertex -3.859506e-18  5.040633e-01  5.347633e-01
     vertex -5.960890e-18  5.025194e-01  5.536909e-01
     vertex -5.908505e-18  5.075360e-01  5.532191e-01
   endloop
 endfacet
 facet normal -1.000000e+00 -4.164947e-31 -1.110223e-16
   outer loop
     vertex -3.859506e-18  5.040633e-01  5.347633e-01
     vertex -3.885781e-18  5.000000e-01  5.350000e-01
     vertex -5.960890e-18  5.025194e-01  5.536909e-01
   endloop
 endfacet
 facet normal -1.000000e+00 -1.254275e-31 -1.110223e-16
   outer loop
     vertex  6.747587e-19  4.655317e-01  4.939223e-01
     vertex  9.749460e-19  4.469722e-01  4.912185e-01
     vertex  4.193696e-19  4.463829e-01  4.962227e-01
   endloop
 endfacet
 facet normal -1.000000e+00 -7.579291e-32 -1.110223e-16
   outer loop
     vertex  6.747587e-19  4.655317e-01  4.939223e-01
     vertex  1.521955e-18  4.480275e-01  4.862915e-01
     vertex  9.749460e-19  4.469722e-01  4.912185e-01
   endloop
 endfacet
 facet normal -1.000000e+00 -9.610397e-32 -1.110223e-16
   outer loop
     vertex  6.747587e-19  4.655317e-01  4.939223e-01
     vertex  4.193696e-19  4.463829e-01  4.962227e-01
     vertex  2.259380e-19  4.650592e-01  4.979649e-01
   endloop
 endfacet
 facet normal -1.000000e+00 -6.376394e-32 -1.110223e-16
   outer loop
     vertex -3.781039e-18  5.080716e-01  5.340566e-01
     vertex -5.804197e-18  5.124864e-01  5.522796e-01
     vertex -5.648881e-18  5.173271e-01  5.508806e-01
   endloop
 endfacet
 facet normal -1.000000e+00 -2.551334e-31 -1.110223e-16
   outer loop
     vertex -3.781039e-18  5.080716e-01  5.340566e-01
     vertex -5.908505e-18  5.075360e-01  5.532191e-01
     vertex -5.804197e-18  5.124864e-01  5.522796e-01
   endloop
 endfacet
 facet normal -1.000000e+00  4.749306e-31 -1.110223e-16
   outer loop
     vertex -3.781039e-18  5.080716e-01  5.340566e-01
     vertex -3.859506e-18  5.040633e-01  5.347633e-01
     vertex -5.908505e-18  5.075360e-01  5.532191e-01
   endloop
 endfacet
 facet normal -1.000000e+00  1.437604e-31 -1.110223e-16
   outer loop
     vertex  1.114454e-18  4.664704e-01  4.899619e-01
     vertex  2.055588e-18  4.495396e-01  4.814849e-01
     vertex  1.521955e-18  4.480275e-01  4.862915e-01
   endloop
 endfacet
 facet normal -1.000000e+00  2.458976e-32 -1.110223e-16
   outer loop
     vertex  1.114454e-18  4.664704e-01  4.899619e-01
     vertex  1.521955e-18  4.480275e-01  4.862915e-01
     vertex  6.747587e-19  4.655317e-01  4.939223e-01
   endloop
 endfacet
 facet normal -1.000000e+00  0.000000e+00 -1.110223e-16
   outer loop
     vertex -3.651439e-18  5.119707e-01  5.328892e-01
     vertex -5.648881e-18  5.173271e-01  5.508806e-01
     vertex -5.443922e-18  5.220155e-01  5.490345e-01
   endloop
 endfacet
 facet normal -1.000000e+00  4.627905e-31 -1.110223e-16
   outer loop
     vertex -3.651439e-18  5.119707e-01  5.328892e-01
     vertex -3.781039e-18  5.080716e-01  5.340566e-01
     vertex -5.648881e-18  5.173271e-01  5.508806e-01
   endloop
 endfacet
 facet normal -1.000000e+00 -2.156644e-31 -1.110223e-16
   outer loop
     vertex  1.539079e-18  4.678624e-01  4.861372e-01
     vertex  2.571157e-18  4.514951e-01  4.768411e-01
     vertex  2.055588e-18  4.495396e-01  4.814849e-01
   endloop
 endfacet
 facet normal -1.000000e+00  2.260231e-31 -1.110223e-16
   outer loop
     vertex  1.539079e-18  4.678624e-01  4.861372e-01
     vertex  2.055588e-18  4.495396e-01  4.814849e-01
     vertex  1.114454e-18  4.664704e-01  4.899619e-01
   endloop
 endfacet
 facet normal -1.000000e+00 -1.405896e-30 -1.110223e-16
   outer loop
     vertex -3.472460e-18  5.157080e-01  5.312771e-01
     vertex -5.443922e-18  5.220155e-01  5.490345e-01
     vertex -5.191122e-18  5.265104e-01  5.467575e-01
   endloop
 endfacet
 facet normal -1.000000e+00 -1.695685e-30 -1.110223e-16
   outer loop
     vertex -3.472460e-18  5.157080e-01  5.312771e-01
     vertex -3.651439e-18  5.119707e-01  5.328892e-01
     vertex -5.443922e-18  5.220155e-01  5.490345e-01
   endloop
 endfacet
 facet normal -1.000000e+00  2.064846e-31 -1.110223e-16
   outer loop
     vertex  1.942890e-18  4.696891e-01  4.825000e-01
     vertex  2.571157e-18  4.514951e-01  4.768411e-01
     vertex  1.539079e-18  4.678624e-01  4.861372e-01
   endloop
 endfacet
 facet normal -1.000000e+00  4.469267e-31 -1.110223e-16
   outer loop
     vertex  1.942890e-18  4.696891e-01  4.825000e-01
     vertex  3.064131e-18  4.538769e-01  4.724008e-01
     vertex  2.571157e-18  4.514951e-01  4.768411e-01
   endloop
 endfacet
 facet normal -1.000000e+00  1.533198e-30 -1.110223e-16
   outer loop
     vertex -3.246522e-18  5.192328e-01  5.292421e-01
     vertex -5.191122e-18  5.265104e-01  5.467575e-01
     vertex -4.892702e-18  5.307724e-01  5.440695e-01
   endloop
 endfacet
 facet normal -1.000000e+00 -5.503597e-31 -1.110223e-16
   outer loop
     vertex -3.246522e-18  5.192328e-01  5.292421e-01
     vertex -3.472460e-18  5.157080e-01  5.312771e-01
     vertex -5.191122e-18  5.265104e-01  5.467575e-01
   endloop
 endfacet
 facet normal -1.000000e+00 -5.763698e-31 -1.110223e-16
   outer loop
     vertex  2.320427e-18  4.719257e-01  4.790994e-01
     vertex  3.064131e-18  4.538769e-01  4.724008e-01
     vertex  1.942890e-18  4.696891e-01  4.825000e-01
   endloop
 endfacet
 facet normal -1.000000e+00 -3.983261e-31 -1.110223e-16
   outer loop
     vertex  2.320427e-18  4.719257e-01  4.790994e-01
     vertex  3.530177e-18  4.566640e-01  4.682030e-01
     vertex  3.064131e-18  4.538769e-01  4.724008e-01
   endloop
 endfacet
 facet normal -1.000000e+00 -4.626209e-31 -1.110223e-16
   outer loop
     vertex  3.965199e-18  4.598319e-01  4.642847e-01
     vertex  3.530177e-18  4.566640e-01  4.682030e-01
     vertex  2.320427e-18  4.719257e-01  4.790994e-01
   endloop
 endfacet
 facet normal -1.000000e+00  1.820396e-30 -1.110223e-16
   outer loop
     vertex -2.976681e-18  5.224976e-01  5.268116e-01
     vertex -3.246522e-18  5.192328e-01  5.292421e-01
     vertex -4.892702e-18  5.307724e-01  5.440695e-01
   endloop
 endfacet
 facet normal -1.000000e+00 -1.467430e-30 -1.110223e-16
   outer loop
     vertex -2.976681e-18  5.224976e-01  5.268116e-01
     vertex -4.892702e-18  5.307724e-01  5.440695e-01
     vertex -4.551285e-18  5.347639e-01  5.409943e-01
   endloop
 endfacet
 facet normal -1.000000e+00  7.870829e-31 -1.110223e-16
   outer loop
     vertex  2.666584e-18  4.745419e-01  4.759815e-01
     vertex  3.965199e-18  4.598319e-01  4.642847e-01
     vertex  2.320427e-18  4.719257e-01  4.790994e-01
   endloop
 endfacet
 facet normal -1.000000e+00  1.211119e-30 -1.110223e-16
   outer loop
     vertex -4.169871e-18  5.384499e-01  5.375589e-01
     vertex -2.976681e-18  5.224976e-01  5.268116e-01
     vertex -4.551285e-18  5.347639e-01  5.409943e-01
   endloop
 endfacet
 facet normal -1.000000e+00 -8.569877e-31 -1.110223e-16
   outer loop
     vertex -2.666584e-18  5.254581e-01  5.240185e-01
     vertex -2.976681e-18  5.224976e-01  5.268116e-01
     vertex -4.169871e-18  5.384499e-01  5.375589e-01
   endloop
 endfacet
 facet normal -1.000000e+00  6.069269e-31 -1.110223e-16
   outer loop
     vertex  4.365376e-18  4.633528e-01  4.606802e-01
     vertex  3.965199e-18  4.598319e-01  4.642847e-01
     vertex  2.666584e-18  4.745419e-01  4.759815e-01
   endloop
 endfacet
 facet normal -1.000000e+00  1.179302e-31 -1.110223e-16
   outer loop
     vertex  2.976681e-18  4.775024e-01  4.731884e-01
     vertex  4.365376e-18  4.633528e-01  4.606802e-01
     vertex  2.666584e-18  4.745419e-01  4.759815e-01
   endloop
 endfacet
 facet normal -1.000000e+00  5.347687e-31 -1.110223e-16
   outer loop
     vertex -3.751812e-18  5.417980e-01  5.337933e-01
     vertex -2.666584e-18  5.254581e-01  5.240185e-01
     vertex -4.169871e-18  5.384499e-01  5.375589e-01
   endloop
 endfacet
 facet normal -1.000000e+00  9.045132e-31 -1.110223e-16
   outer loop
     vertex -3.751812e-18  5.417980e-01  5.337933e-01
     vertex -2.320427e-18  5.280743e-01  5.209006e-01
     vertex -2.666584e-18  5.254581e-01  5.240185e-01
   endloop
 endfacet
 facet normal -1.000000e+00 -1.118310e-31 -1.110223e-16
   outer loop
     vertex  4.727189e-18  4.671958e-01  4.574213e-01
     vertex  4.365376e-18  4.633528e-01  4.606802e-01
     vertex  2.976681e-18  4.775024e-01  4.731884e-01
   endloop
 endfacet
 facet normal -1.000000e+00 -6.193415e-31 -1.110223e-16
   outer loop
     vertex  3.246522e-18  4.807672e-01  4.707579e-01
     vertex  4.727189e-18  4.671958e-01  4.574213e-01
     vertex  2.976681e-18  4.775024e-01  4.731884e-01
   endloop
 endfacet
 facet normal -1.000000e+00  2.316454e-31 -1.110223e-16
   outer loop
     vertex -3.300782e-18  5.447788e-01  5.297308e-01
     vertex -2.320427e-18  5.280743e-01  5.209006e-01
     vertex -3.751812e-18  5.417980e-01  5.337933e-01
   endloop
 endfacet
 facet normal -1.000000e+00 -1.572362e-31 -1.110223e-16
   outer loop
     vertex -3.300782e-18  5.447788e-01  5.297308e-01
     vertex -1.942890e-18  5.303109e-01  5.175000e-01
     vertex -2.320427e-18  5.280743e-01  5.209006e-01
   endloop
 endfacet
 facet normal -1.000000e+00 -2.757574e-31 -1.110223e-16
   outer loop
     vertex  5.047459e-18  4.713271e-01  4.545365e-01
     vertex  3.246522e-18  4.807672e-01  4.707579e-01
     vertex  3.472460e-18  4.842920e-01  4.687229e-01
   endloop
 endfacet
 facet normal -1.000000e+00  7.184128e-32 -1.110223e-16
   outer loop
     vertex  5.047459e-18  4.713271e-01  4.545365e-01
     vertex  4.727189e-18  4.671958e-01  4.574213e-01
     vertex  3.246522e-18  4.807672e-01  4.707579e-01
   endloop
 endfacet
 facet normal -1.000000e+00  4.392470e-31 -1.110223e-16
   outer loop
     vertex -2.820744e-18  5.473661e-01  5.254070e-01
     vertex -1.942890e-18  5.303109e-01  5.175000e-01
     vertex -3.300782e-18  5.447788e-01  5.297308e-01
   endloop
 endfacet
 facet normal -1.000000e+00  1.141113e-30 -1.110223e-16
   outer loop
     vertex -2.820744e-18  5.473661e-01  5.254070e-01
     vertex -1.539079e-18  5.321376e-01  5.138628e-01
     vertex -1.942890e-18  5.303109e-01  5.175000e-01
   endloop
 endfacet
 facet normal -1.000000e+00 -1.035998e-31 -1.110223e-16
   outer loop
     vertex  5.323373e-18  4.757104e-01  4.520513e-01
     vertex  5.047459e-18  4.713271e-01  4.545365e-01
     vertex  3.472460e-18  4.842920e-01  4.687229e-01
   endloop
 endfacet
 facet normal -1.000000e+00 -6.940193e-31 -1.110223e-16
   outer loop
     vertex -2.315918e-18  5.495371e-01  5.208599e-01
     vertex -1.539079e-18  5.321376e-01  5.138628e-01
     vertex -2.820744e-18  5.473661e-01  5.254070e-01
   endloop
 endfacet
 facet normal -1.000000e+00  7.873207e-32 -1.110223e-16
   outer loop
     vertex  5.552504e-18  4.803071e-01  4.499875e-01
     vertex  3.472460e-18  4.842920e-01  4.687229e-01
     vertex  3.651439e-18  4.880293e-01  4.671108e-01
   endloop
 endfacet
 facet normal -1.000000e+00  9.568877e-32 -1.110223e-16
   outer loop
     vertex  5.552504e-18  4.803071e-01  4.499875e-01
     vertex  5.323373e-18  4.757104e-01  4.520513e-01
     vertex  3.472460e-18  4.842920e-01  4.687229e-01
   endloop
 endfacet
 facet normal -1.000000e+00 -3.743601e-31 -1.110223e-16
   outer loop
     vertex -1.790740e-18  5.512728e-01  5.161295e-01
     vertex -1.539079e-18  5.321376e-01  5.138628e-01
     vertex -2.315918e-18  5.495371e-01  5.208599e-01
   endloop
 endfacet
 facet normal -1.000000e+00 -5.222940e-31 -1.110223e-16
   outer loop
     vertex -1.790740e-18  5.512728e-01  5.161295e-01
     vertex -1.114454e-18  5.335296e-01  5.100381e-01
     vertex -1.539079e-18  5.321376e-01  5.138628e-01
   endloop
 endfacet
 facet normal -1.000000e+00  1.022141e-30 -1.110223e-16
   outer loop
     vertex  5.732840e-18  4.850768e-01  4.483632e-01
     vertex  3.651439e-18  4.880293e-01  4.671108e-01
     vertex  3.781039e-18  4.919284e-01  4.659434e-01
   endloop
 endfacet
 facet normal -1.000000e+00  3.952520e-31 -1.110223e-16
   outer loop
     vertex  5.732840e-18  4.850768e-01  4.483632e-01
     vertex  5.552504e-18  4.803071e-01  4.499875e-01
     vertex  3.651439e-18  4.880293e-01  4.671108e-01
   endloop
 endfacet
 facet normal -1.000000e+00  5.666621e-31 -1.110223e-16
   outer loop
     vertex -1.249824e-18  5.525579e-01  5.112574e-01
     vertex -6.747587e-19  5.344683e-01  5.060777e-01
     vertex -1.114454e-18  5.335296e-01  5.100381e-01
   endloop
 endfacet
 facet normal -1.000000e+00  5.346601e-31 -1.110223e-16
   outer loop
     vertex -1.249824e-18  5.525579e-01  5.112574e-01
     vertex -1.114454e-18  5.335296e-01  5.100381e-01
     vertex -1.790740e-18  5.512728e-01  5.161295e-01
   endloop
 endfacet
 facet normal -1.000000e+00 -1.572700e-31 -1.110223e-16
   outer loop
     vertex  5.862795e-18  4.899778e-01  4.471926e-01
     vertex  3.781039e-18  4.919284e-01  4.659434e-01
     vertex  3.859506e-18  4.959367e-01  4.652367e-01
   endloop
 endfacet
 facet normal -1.000000e+00 -3.115364e-31 -1.110223e-16
   outer loop
     vertex  5.862795e-18  4.899778e-01  4.471926e-01
     vertex  5.732840e-18  4.850768e-01  4.483632e-01
     vertex  3.781039e-18  4.919284e-01  4.659434e-01
   endloop
 endfacet
 facet normal -1.000000e+00 -3.886274e-31 -1.110223e-16
   outer loop
     vertex -6.979249e-19  5.533811e-01  5.062863e-01
     vertex -2.259380e-19  5.349408e-01  5.020351e-01
     vertex -6.747587e-19  5.344683e-01  5.060777e-01
   endloop
 endfacet
 facet normal -1.000000e+00 -4.028606e-31 -1.110223e-16
   outer loop
     vertex -6.979249e-19  5.533811e-01  5.062863e-01
     vertex -6.747587e-19  5.344683e-01  5.060777e-01
     vertex -1.249824e-18  5.525579e-01  5.112574e-01
   endloop
 endfacet
 facet normal -1.000000e+00  1.227846e-28 -1.110223e-16
   outer loop
     vertex  5.941228e-18  4.949668e-01  4.464862e-01
     vertex  3.859506e-18  4.959367e-01  4.652367e-01
     vertex  3.885781e-18  5.000000e-01  4.650000e-01
   endloop
 endfacet
 facet normal -1.000000e+00  6.566607e-31 -1.110223e-16
   outer loop
     vertex  5.941228e-18  4.949668e-01  4.464862e-01
     vertex  5.862795e-18  4.899778e-01  4.471926e-01
     vertex  3.859506e-18  4.959367e-01  4.652367e-01
   endloop
 endfacet
 facet normal -1.000000e+00 -1.058281e-31 -1.110223e-16
   outer loop
     vertex -1.398924e-19  5.537352e-01  5.012600e-01
     vertex -2.259380e-19  5.349408e-01  5.020351e-01
     vertex -6.979249e-19  5.533811e-01  5.062863e-01
   endloop
 endfacet
 facet normal -1.000000e+00 -1.782543e-32 -1.110223e-16
   outer loop
     vertex -1.398924e-19  5.537352e-01  5.012600e-01
     vertex  2.259380e-19  5.349408e-01  4.979649e-01
     vertex -2.259380e-19  5.349408e-01  5.020351e-01
   endloop
 endfacet
 facet normal -1.000000e+00  1.227267e-28 -1.110223e-16
   outer loop
     vertex  5.967449e-18  5.000000e-01  4.462500e-01
     vertex  5.941228e-18  4.949668e-01  4.464862e-01
     vertex  3.885781e-18  5.000000e-01  4.650000e-01
   endloop
 endfacet
 facet normal -1.000000e+00  2.234155e-31 -1.110223e-16
   outer loop
     vertex  4.193696e-19  5.536171e-01  4.962227e-01
     vertex  2.259380e-19  5.349408e-01  4.979649e-01
     vertex -1.398924e-19  5.537352e-01  5.012600e-01
   endloop
 endfacet
 facet normal -1.000000e+00  2.673662e-31 -1.110223e-16
   outer loop
     vertex  4.193696e-19  5.536171e-01  4.962227e-01
     vertex  6.747587e-19  5.344683e-01  4.939223e-01
     vertex  2.259380e-19  5.349408e-01  4.979649e-01
   endloop
 endfacet
 facet normal -1.000000e+00 -1.230327e-28 -1.110223e-16
   outer loop
     vertex  5.941228e-18  5.050332e-01  4.464862e-01
     vertex  5.967449e-18  5.000000e-01  4.462500e-01
     vertex  3.885781e-18  5.000000e-01  4.650000e-01
   endloop
 endfacet
 facet normal -1.000000e+00 -1.235722e-28 -1.110223e-16
   outer loop
     vertex  5.941228e-18  5.050332e-01  4.464862e-01
     vertex  3.885781e-18  5.000000e-01  4.650000e-01
     vertex  3.859506e-18  5.040633e-01  4.652367e-01
   endloop
 endfacet
 facet normal -1.000000e+00  2.209914e-31 -1.110223e-16
   outer loop
     vertex  9.749460e-19  5.530278e-01  4.912185e-01
     vertex  6.747587e-19  5.344683e-01  4.939223e-01
     vertex  4.193696e-19  5.536171e-01  4.962227e-01
   endloop
 endfacet
 facet normal -1.000000e+00 -7.983716e-31 -1.110223e-16
   outer loop
     vertex  5.862795e-18  5.100222e-01  4.471926e-01
     vertex  5.941228e-18  5.050332e-01  4.464862e-01
     vertex  3.859506e-18  5.040633e-01  4.652367e-01
   endloop
 endfacet
 facet normal -1.000000e+00 -4.718101e-31 -1.110223e-16
   outer loop
     vertex  5.862795e-18  5.100222e-01  4.471926e-01
     vertex  3.859506e-18  5.040633e-01  4.652367e-01
     vertex  3.781039e-18  5.080716e-01  4.659434e-01
   endloop
 endfacet
 facet normal -1.000000e+00  1.914768e-31 -1.110223e-16
   outer loop
     vertex  1.521955e-18  5.519725e-01  4.862915e-01
     vertex  6.747587e-19  5.344683e-01  4.939223e-01
     vertex  9.749460e-19  5.530278e-01  4.912185e-01
   endloop
 endfacet
 facet normal -1.000000e+00 -1.721284e-31 -1.110223e-16
   outer loop
     vertex  1.521955e-18  5.519725e-01  4.862915e-01
     vertex  1.114454e-18  5.335296e-01  4.899619e-01
     vertex  6.747587e-19  5.344683e-01  4.939223e-01
   endloop
 endfacet
 facet normal -1.000000e+00  9.435145e-31 -1.110223e-16
   outer loop
     vertex  5.732840e-18  5.149232e-01  4.483632e-01
     vertex  3.781039e-18  5.080716e-01  4.659434e-01
     vertex  3.651439e-18  5.119707e-01  4.671108e-01
   endloop
 endfacet
 facet normal -1.000000e+00  3.994056e-32 -1.110223e-16
   outer loop
     vertex  5.732840e-18  5.149232e-01  4.483632e-01
     vertex  5.862795e-18  5.100222e-01  4.471926e-01
     vertex  3.781039e-18  5.080716e-01  4.659434e-01
   endloop
 endfacet
 facet normal -1.000000e+00 -1.996673e-31 -1.110223e-16
   outer loop
     vertex  2.055588e-18  5.504604e-01  4.814849e-01
     vertex  1.114454e-18  5.335296e-01  4.899619e-01
     vertex  1.521955e-18  5.519725e-01  4.862915e-01
   endloop
 endfacet
 facet normal -1.000000e+00  1.965418e-31 -1.110223e-16
   outer loop
     vertex  2.055588e-18  5.504604e-01  4.814849e-01
     vertex  1.539079e-18  5.321376e-01  4.861372e-01
     vertex  1.114454e-18  5.335296e-01  4.899619e-01
   endloop
 endfacet
 facet normal -1.000000e+00  7.146475e-31 -1.110223e-16
   outer loop
     vertex  5.552504e-18  5.196929e-01  4.499875e-01
     vertex  5.732840e-18  5.149232e-01  4.483632e-01
     vertex  3.651439e-18  5.119707e-01  4.671108e-01
   endloop
 endfacet
 facet normal -1.000000e+00  3.936603e-31 -1.110223e-16
   outer loop
     vertex  5.552504e-18  5.196929e-01  4.499875e-01
     vertex  3.651439e-18  5.119707e-01  4.671108e-01
     vertex  3.472460e-18  5.157080e-01  4.687229e-01
   endloop
 endfacet
 facet normal -1.000000e+00  9.585085e-32 -1.110223e-16
   outer loop
     vertex  2.571157e-18  5.485049e-01  4.768411e-01
     vertex  1.539079e-18  5.321376e-01  4.861372e-01
     vertex  2.055588e-18  5.504604e-01  4.814849e-01
   endloop
 endfacet
 facet normal -1.000000e+00  2.949779e-32 -1.110223e-16
   outer loop
     vertex  2.571157e-18  5.485049e-01  4.768411e-01
     vertex  1.942890e-18  5.303109e-01  4.825000e-01
     vertex  1.539079e-18  5.321376e-01  4.861372e-01
   endloop
 endfacet
 facet normal -1.000000e+00 -1.594813e-32 -1.110223e-16
   outer loop
     vertex  5.323373e-18  5.242896e-01  4.520513e-01
     vertex  5.552504e-18  5.196929e-01  4.499875e-01
     vertex  3.472460e-18  5.157080e-01  4.687229e-01
   endloop
 endfacet
 facet normal -1.000000e+00  3.112525e-31 -1.110223e-16
   outer loop
     vertex  3.064131e-18  5.461231e-01  4.724008e-01
     vertex  1.942890e-18  5.303109e-01  4.825000e-01
     vertex  2.571157e-18  5.485049e-01  4.768411e-01
   endloop
 endfacet
 facet normal -1.000000e+00 -3.152792e-31 -1.110223e-16
   outer loop
     vertex  3.064131e-18  5.461231e-01  4.724008e-01
     vertex  2.320427e-18  5.280743e-01  4.790994e-01
     vertex  1.942890e-18  5.303109e-01  4.825000e-01
   endloop
 endfacet
 facet normal -1.000000e+00  4.781528e-32 -1.110223e-16
   outer loop
     vertex  5.047459e-18  5.286729e-01  4.545365e-01
     vertex  5.323373e-18  5.242896e-01  4.520513e-01
     vertex  3.472460e-18  5.157080e-01  4.687229e-01
   endloop
 endfacet
 facet normal -1.000000e+00 -5.909086e-31 -1.110223e-16
   outer loop
     vertex  5.047459e-18  5.286729e-01  4.545365e-01
     vertex  3.472460e-18  5.157080e-01  4.687229e-01
     vertex  3.246522e-18  5.192328e-01  4.707579e-01
   endloop
 endfacet
 facet normal -1.000000e+00 -2.867948e-31 -1.110223e-16
   outer loop
     vertex  3.530177e-18  5.433360e-01  4.682030e-01
     vertex  2.320427e-18  5.280743e-01  4.790994e-01
     vertex  3.064131e-18  5.461231e-01  4.724008e-01
   endloop
 endfacet
 facet normal -1.000000e+00 -7.982365e-33 -1.110223e-16
   outer loop
     vertex  4.727189e-18  5.328042e-01  4.574213e-01
     vertex  5.047459e-18  5.286729e-01  4.545365e-01
     vertex  3.246522e-18  5.192328e-01  4.707579e-01
   endloop
 endfacet
 facet normal -1.000000e+00 -3.145862e-31 -1.110223e-16
   outer loop
     vertex  4.727189e-18  5.328042e-01  4.574213e-01
     vertex  3.246522e-18  5.192328e-01  4.707579e-01
     vertex  2.976681e-18  5.224976e-01  4.731884e-01
   endloop
 endfacet
 facet normal -1.000000e+00 -2.711915e-31 -1.110223e-16
   outer loop
     vertex  3.965199e-18  5.401681e-01  4.642847e-01
     vertex  2.320427e-18  5.280743e-01  4.790994e-01
     vertex  3.530177e-18  5.433360e-01  4.682030e-01
   endloop
 endfacet
 facet normal -1.000000e+00  5.903122e-31 -1.110223e-16
   outer loop
     vertex  3.965199e-18  5.401681e-01  4.642847e-01
     vertex  2.666584e-18  5.254581e-01  4.759815e-01
     vertex  2.320427e-18  5.280743e-01  4.790994e-01
   endloop
 endfacet
 facet normal -1.000000e+00 -3.993966e-31 -1.110223e-16
   outer loop
     vertex  4.365376e-18  5.366472e-01  4.606802e-01
     vertex  4.727189e-18  5.328042e-01  4.574213e-01
     vertex  2.976681e-18  5.224976e-01  4.731884e-01
   endloop
 endfacet
 facet normal -1.000000e+00  6.069269e-31 -1.110223e-16
   outer loop
     vertex  4.365376e-18  5.366472e-01  4.606802e-01
     vertex  2.666584e-18  5.254581e-01  4.759815e-01
     vertex  3.965199e-18  5.401681e-01  4.642847e-01
   endloop
 endfacet
 facet normal -1.000000e+00  1.179302e-31 -1.110223e-16
   outer loop
     vertex  4.365376e-18  5.366472e-01  4.606802e-01
     vertex  2.976681e-18  5.224976e-01  4.731884e-01
     vertex  2.666584e-18  5.254581e-01  4.759815e-01
   endloop
 endfacet
endsolid
